<svg width="525" height="174" viewBox="0 0 525 174" fill="none" xmlns="http://www.w3.org/2000/svg">
<path d="M173.782 90.576C169.686 90.576 166.006 89.776 162.742 88.176C159.542 86.576 156.822 84.4 154.582 81.648C152.342 78.832 150.646 75.696 149.494 72.24C148.342 68.72 147.766 65.104 147.766 61.392C147.766 57.616 148.438 53.84 149.782 50.064C151.126 46.224 153.014 42.608 155.446 39.216C157.942 35.76 160.886 32.72 164.278 30.096C167.67 27.408 171.446 25.296 175.606 23.76C179.83 22.224 184.31 21.456 189.046 21.456C195.318 21.456 200.502 22.832 204.598 25.584C208.694 28.272 211.382 31.856 212.662 36.336L196.246 46.512C195.926 44.272 195.158 42.544 193.942 41.328C192.79 40.112 191.414 39.28 189.814 38.832C188.278 38.32 186.71 38.064 185.11 38.064C182.166 38.064 179.542 38.768 177.238 40.176C174.998 41.52 173.11 43.312 171.574 45.552C170.038 47.792 168.854 50.192 168.022 52.752C167.254 55.312 166.87 57.776 166.87 60.144C166.87 62.64 167.254 64.944 168.022 67.056C168.854 69.104 170.07 70.768 171.67 72.048C173.27 73.328 175.286 73.968 177.718 73.968C179.254 73.968 180.886 73.712 182.614 73.2C184.406 72.624 186.102 71.728 187.702 70.512C189.302 69.296 190.646 67.664 191.734 65.616L205.078 74.736C203.094 78.064 200.342 80.912 196.822 83.28C193.366 85.648 189.59 87.472 185.494 88.752C181.398 89.968 177.494 90.576 173.782 90.576ZM223.036 21.84H241.756L236.38 46.992H256.732L262.108 21.84H280.828L266.332 90H247.612L253.276 63.312H232.924L227.26 90H208.54L223.036 21.84ZM292.505 21.84H338.009L334.553 38.16H307.769L305.753 47.76H328.601L325.337 62.928H302.489L300.185 73.68H327.833L324.377 90H278.009L292.505 21.84ZM347.724 21.84H392.268L388.812 38.16H362.988L360.588 49.488H381.516L378.348 64.656H357.324L351.948 90H333.228L347.724 21.84Z" fill="#D95C39"/>
<mask id="path-2-outside-1_41_161" maskUnits="userSpaceOnUse" x="0" y="100" width="525" height="74" fill="black">
<rect fill="white" y="100" width="525" height="74"/>
<path d="M29.6749 172C25.0052 172 20.2396 171.26 15.3779 169.779C10.5163 168.299 6.39034 166.368 3 163.986L14.5144 147.476C14.4504 147.476 14.8982 147.862 15.8577 148.634C16.8812 149.407 18.2885 150.276 20.0796 151.241C21.9347 152.207 24.0137 153.076 26.3166 153.848C28.6194 154.621 31.0183 155.007 33.5131 155.007C34.9843 155.007 36.0718 154.846 36.7755 154.524C37.4791 154.138 37.9269 153.687 38.1188 153.172C38.3747 152.593 38.5026 152.014 38.5026 151.434C38.5026 150.276 37.8949 149.343 36.6795 148.634C35.4641 147.862 33.8969 147.186 31.9778 146.607C30.1227 145.963 28.1397 145.223 26.0287 144.386C23.2141 143.228 20.8792 141.972 19.0241 140.621C17.1691 139.205 15.7617 137.563 14.8022 135.697C13.9067 133.83 13.4589 131.674 13.4589 129.228C13.4589 124.915 14.2905 121.085 15.9537 117.738C17.6808 114.326 19.9837 111.462 22.8623 109.145C25.7409 106.828 28.9393 105.057 32.4576 103.834C35.9758 102.611 39.5581 102 43.2043 102C46.4027 102 49.4093 102.418 52.2239 103.255C55.0385 104.028 57.6292 104.993 59.9961 106.152C62.3629 107.31 64.4099 108.405 66.1371 109.434L54.8146 124.979C54.9426 124.979 54.5587 124.657 53.6632 124.014C52.7676 123.37 51.5522 122.662 50.017 121.89C48.4817 121.053 46.7546 120.313 44.8355 119.669C42.9164 119.025 40.9974 118.703 39.0783 118.703C38.1828 118.703 37.3192 118.864 36.4876 119.186C35.72 119.444 35.1123 119.862 34.6645 120.441C34.2167 121.021 33.9928 121.793 33.9928 122.759C33.9928 123.724 34.4086 124.529 35.2402 125.172C36.1358 125.816 37.3512 126.428 38.8864 127.007C40.4217 127.522 42.1808 128.166 44.1638 128.938C47.2343 130.097 49.921 131.384 52.2239 132.8C54.5907 134.152 56.4138 135.857 57.6932 137.917C58.9726 139.977 59.6123 142.616 59.6123 145.834C59.6123 150.726 58.7167 154.846 56.9256 158.193C55.1345 161.54 52.7676 164.244 49.8251 166.303C46.8825 168.299 43.6521 169.747 40.1338 170.648C36.6155 171.549 33.1292 172 29.6749 172Z"/>
<path d="M92.2505 102.579H109.426L117.006 171.131H98.0077L97.336 157.71H81.024L74.7871 171.131H55.6924L92.2505 102.579ZM97.0482 145.159L96.2805 123.917L86.3974 145.159H97.0482Z"/>
<path d="M136.748 102.579H155.459L149.989 128.648L173.786 102.579H194.991L165.15 133.283L182.134 171.131H160.544L150.565 145.931L145.192 151.338L140.97 171.131H122.259L136.748 102.579Z"/>
<path d="M217.064 102.579H234.24L241.82 171.131H222.822L222.15 157.71H205.838L199.601 171.131H180.506L217.064 102.579ZM221.862 145.159L221.094 123.917L211.211 145.159H221.862Z"/>
<path d="M261.562 102.579H282L288.237 134.828L308.195 102.579H328.537L314.048 171.131H295.337L302.918 135.021L287.757 160.414H277.874L273.46 135.021L265.784 171.131H247.073L261.562 102.579Z"/>
<path d="M355.146 171.71C350.924 171.71 347.15 170.938 343.824 169.393C340.561 167.784 337.81 165.628 335.572 162.924C333.333 160.221 331.637 157.163 330.486 153.752C329.335 150.276 328.759 146.671 328.759 142.938C328.759 138.818 329.463 134.763 330.87 130.772C332.341 126.782 334.356 123.08 336.915 119.669C339.538 116.193 342.576 113.168 346.03 110.593C349.549 107.954 353.355 105.894 357.449 104.414C361.543 102.933 365.797 102.193 370.211 102.193C374.433 102.193 378.175 102.998 381.437 104.607C384.699 106.152 387.45 108.276 389.689 110.979C391.928 113.683 393.591 116.772 394.679 120.248C395.83 123.66 396.406 127.232 396.406 130.966C396.406 135.085 395.67 139.14 394.199 143.131C392.792 147.057 390.809 150.759 388.25 154.234C385.691 157.646 382.684 160.671 379.23 163.31C375.776 165.949 372.002 168.009 367.908 169.49C363.814 170.97 359.56 171.71 355.146 171.71ZM358.792 155.007C361.863 155.007 364.549 154.299 366.852 152.883C369.155 151.467 371.074 149.632 372.609 147.379C374.209 145.062 375.392 142.584 376.16 139.945C376.927 137.306 377.311 134.731 377.311 132.221C377.311 129.839 376.927 127.651 376.16 125.655C375.456 123.595 374.305 121.954 372.705 120.731C371.106 119.508 368.995 118.897 366.372 118.897C363.366 118.897 360.711 119.605 358.408 121.021C356.105 122.372 354.186 124.175 352.651 126.428C351.116 128.68 349.933 131.126 349.101 133.766C348.333 136.405 347.949 138.979 347.949 141.49C347.949 143.871 348.301 146.092 349.005 148.152C349.773 150.211 350.956 151.885 352.555 153.172C354.154 154.395 356.233 155.007 358.792 155.007Z"/>
<path d="M419.504 118.993H401.177L404.631 102.579H459.9L456.446 118.993H438.215L427.18 171.131H408.47L419.504 118.993Z"/>
<path d="M481.74 171.71C477.518 171.71 473.744 170.938 470.418 169.393C467.155 167.784 464.405 165.628 462.166 162.924C459.927 160.221 458.232 157.163 457.08 153.752C455.929 150.276 455.353 146.671 455.353 142.938C455.353 138.818 456.057 134.763 457.464 130.772C458.935 126.782 460.95 123.08 463.509 119.669C466.132 116.193 469.17 113.168 472.625 110.593C476.143 107.954 479.949 105.894 484.043 104.414C488.137 102.933 492.391 102.193 496.805 102.193C501.027 102.193 504.769 102.998 508.031 104.607C511.294 106.152 514.044 108.276 516.283 110.979C518.522 113.683 520.185 116.772 521.273 120.248C522.424 123.66 523 127.232 523 130.966C523 135.085 522.264 139.14 520.793 143.131C519.386 147.057 517.403 150.759 514.844 154.234C512.285 157.646 509.279 160.671 505.824 163.31C502.37 165.949 498.596 168.009 494.502 169.49C490.408 170.97 486.154 171.71 481.74 171.71ZM485.386 155.007C488.457 155.007 491.144 154.299 493.446 152.883C495.749 151.467 497.668 149.632 499.204 147.379C500.803 145.062 501.986 142.584 502.754 139.945C503.522 137.306 503.905 134.731 503.905 132.221C503.905 129.839 503.522 127.651 502.754 125.655C502.05 123.595 500.899 121.954 499.3 120.731C497.7 119.508 495.589 118.897 492.967 118.897C489.96 118.897 487.305 119.605 485.003 121.021C482.7 122.372 480.781 124.175 479.245 126.428C477.71 128.68 476.527 131.126 475.695 133.766C474.928 136.405 474.544 138.979 474.544 141.49C474.544 143.871 474.896 146.092 475.599 148.152C476.367 150.211 477.55 151.885 479.149 153.172C480.749 154.395 482.828 155.007 485.386 155.007Z"/>
</mask>
<path d="M29.6749 172C25.0052 172 20.2396 171.26 15.3779 169.779C10.5163 168.299 6.39034 166.368 3 163.986L14.5144 147.476C14.4504 147.476 14.8982 147.862 15.8577 148.634C16.8812 149.407 18.2885 150.276 20.0796 151.241C21.9347 152.207 24.0137 153.076 26.3166 153.848C28.6194 154.621 31.0183 155.007 33.5131 155.007C34.9843 155.007 36.0718 154.846 36.7755 154.524C37.4791 154.138 37.9269 153.687 38.1188 153.172C38.3747 152.593 38.5026 152.014 38.5026 151.434C38.5026 150.276 37.8949 149.343 36.6795 148.634C35.4641 147.862 33.8969 147.186 31.9778 146.607C30.1227 145.963 28.1397 145.223 26.0287 144.386C23.2141 143.228 20.8792 141.972 19.0241 140.621C17.1691 139.205 15.7617 137.563 14.8022 135.697C13.9067 133.83 13.4589 131.674 13.4589 129.228C13.4589 124.915 14.2905 121.085 15.9537 117.738C17.6808 114.326 19.9837 111.462 22.8623 109.145C25.7409 106.828 28.9393 105.057 32.4576 103.834C35.9758 102.611 39.5581 102 43.2043 102C46.4027 102 49.4093 102.418 52.2239 103.255C55.0385 104.028 57.6292 104.993 59.9961 106.152C62.3629 107.31 64.4099 108.405 66.1371 109.434L54.8146 124.979C54.9426 124.979 54.5587 124.657 53.6632 124.014C52.7676 123.37 51.5522 122.662 50.017 121.89C48.4817 121.053 46.7546 120.313 44.8355 119.669C42.9164 119.025 40.9974 118.703 39.0783 118.703C38.1828 118.703 37.3192 118.864 36.4876 119.186C35.72 119.444 35.1123 119.862 34.6645 120.441C34.2167 121.021 33.9928 121.793 33.9928 122.759C33.9928 123.724 34.4086 124.529 35.2402 125.172C36.1358 125.816 37.3512 126.428 38.8864 127.007C40.4217 127.522 42.1808 128.166 44.1638 128.938C47.2343 130.097 49.921 131.384 52.2239 132.8C54.5907 134.152 56.4138 135.857 57.6932 137.917C58.9726 139.977 59.6123 142.616 59.6123 145.834C59.6123 150.726 58.7167 154.846 56.9256 158.193C55.1345 161.54 52.7676 164.244 49.8251 166.303C46.8825 168.299 43.6521 169.747 40.1338 170.648C36.6155 171.549 33.1292 172 29.6749 172Z" stroke="#D95C39" stroke-width="4" mask="url(#path-2-outside-1_41_161)"/>
<path d="M92.2505 102.579H109.426L117.006 171.131H98.0077L97.336 157.71H81.024L74.7871 171.131H55.6924L92.2505 102.579ZM97.0482 145.159L96.2805 123.917L86.3974 145.159H97.0482Z" stroke="#D95C39" stroke-width="4" mask="url(#path-2-outside-1_41_161)"/>
<path d="M136.748 102.579H155.459L149.989 128.648L173.786 102.579H194.991L165.15 133.283L182.134 171.131H160.544L150.565 145.931L145.192 151.338L140.97 171.131H122.259L136.748 102.579Z" stroke="#D95C39" stroke-width="4" mask="url(#path-2-outside-1_41_161)"/>
<path d="M217.064 102.579H234.24L241.82 171.131H222.822L222.15 157.71H205.838L199.601 171.131H180.506L217.064 102.579ZM221.862 145.159L221.094 123.917L211.211 145.159H221.862Z" stroke="#D95C39" stroke-width="4" mask="url(#path-2-outside-1_41_161)"/>
<path d="M261.562 102.579H282L288.237 134.828L308.195 102.579H328.537L314.048 171.131H295.337L302.918 135.021L287.757 160.414H277.874L273.46 135.021L265.784 171.131H247.073L261.562 102.579Z" stroke="#D95C39" stroke-width="4" mask="url(#path-2-outside-1_41_161)"/>
<path d="M355.146 171.71C350.924 171.71 347.15 170.938 343.824 169.393C340.561 167.784 337.81 165.628 335.572 162.924C333.333 160.221 331.637 157.163 330.486 153.752C329.335 150.276 328.759 146.671 328.759 142.938C328.759 138.818 329.463 134.763 330.87 130.772C332.341 126.782 334.356 123.08 336.915 119.669C339.538 116.193 342.576 113.168 346.03 110.593C349.549 107.954 353.355 105.894 357.449 104.414C361.543 102.933 365.797 102.193 370.211 102.193C374.433 102.193 378.175 102.998 381.437 104.607C384.699 106.152 387.45 108.276 389.689 110.979C391.928 113.683 393.591 116.772 394.679 120.248C395.83 123.66 396.406 127.232 396.406 130.966C396.406 135.085 395.67 139.14 394.199 143.131C392.792 147.057 390.809 150.759 388.25 154.234C385.691 157.646 382.684 160.671 379.23 163.31C375.776 165.949 372.002 168.009 367.908 169.49C363.814 170.97 359.56 171.71 355.146 171.71ZM358.792 155.007C361.863 155.007 364.549 154.299 366.852 152.883C369.155 151.467 371.074 149.632 372.609 147.379C374.209 145.062 375.392 142.584 376.16 139.945C376.927 137.306 377.311 134.731 377.311 132.221C377.311 129.839 376.927 127.651 376.16 125.655C375.456 123.595 374.305 121.954 372.705 120.731C371.106 119.508 368.995 118.897 366.372 118.897C363.366 118.897 360.711 119.605 358.408 121.021C356.105 122.372 354.186 124.175 352.651 126.428C351.116 128.68 349.933 131.126 349.101 133.766C348.333 136.405 347.949 138.979 347.949 141.49C347.949 143.871 348.301 146.092 349.005 148.152C349.773 150.211 350.956 151.885 352.555 153.172C354.154 154.395 356.233 155.007 358.792 155.007Z" stroke="#D95C39" stroke-width="4" mask="url(#path-2-outside-1_41_161)"/>
<path d="M419.504 118.993H401.177L404.631 102.579H459.9L456.446 118.993H438.215L427.18 171.131H408.47L419.504 118.993Z" stroke="#D95C39" stroke-width="4" mask="url(#path-2-outside-1_41_161)"/>
<path d="M481.74 171.71C477.518 171.71 473.744 170.938 470.418 169.393C467.155 167.784 464.405 165.628 462.166 162.924C459.927 160.221 458.232 157.163 457.08 153.752C455.929 150.276 455.353 146.671 455.353 142.938C455.353 138.818 456.057 134.763 457.464 130.772C458.935 126.782 460.95 123.08 463.509 119.669C466.132 116.193 469.17 113.168 472.625 110.593C476.143 107.954 479.949 105.894 484.043 104.414C488.137 102.933 492.391 102.193 496.805 102.193C501.027 102.193 504.769 102.998 508.031 104.607C511.294 106.152 514.044 108.276 516.283 110.979C518.522 113.683 520.185 116.772 521.273 120.248C522.424 123.66 523 127.232 523 130.966C523 135.085 522.264 139.14 520.793 143.131C519.386 147.057 517.403 150.759 514.844 154.234C512.285 157.646 509.279 160.671 505.824 163.31C502.37 165.949 498.596 168.009 494.502 169.49C490.408 170.97 486.154 171.71 481.74 171.71ZM485.386 155.007C488.457 155.007 491.144 154.299 493.446 152.883C495.749 151.467 497.668 149.632 499.204 147.379C500.803 145.062 501.986 142.584 502.754 139.945C503.522 137.306 503.905 134.731 503.905 132.221C503.905 129.839 503.522 127.651 502.754 125.655C502.05 123.595 500.899 121.954 499.3 120.731C497.7 119.508 495.589 118.897 492.967 118.897C489.96 118.897 487.305 119.605 485.003 121.021C482.7 122.372 480.781 124.175 479.245 126.428C477.71 128.68 476.527 131.126 475.695 133.766C474.928 136.405 474.544 138.979 474.544 141.49C474.544 143.871 474.896 146.092 475.599 148.152C476.367 150.211 477.55 151.885 479.149 153.172C480.749 154.395 482.828 155.007 485.386 155.007Z" stroke="#D95C39" stroke-width="4" mask="url(#path-2-outside-1_41_161)"/>
</svg>
