<svg width="120" height="120" viewBox="0 0 120 120" fill="none" xmlns="http://www.w3.org/2000/svg">
<path d="M3.81767 102.026C4.51179 102.183 5.14806 102.321 5.7265 102.439C6.34349 102.558 6.86409 102.617 7.28827 102.617C8.02095 102.617 8.61867 102.42 9.08142 102.026C9.58273 101.671 10.0648 101.002 10.5275 100.017C10.9902 99.072 11.4723 97.7329 11.9736 96L0 65.0437H8.04023L16.1962 87.9065L23.3687 65.0437H30.7727L18.0471 102.144C17.5844 103.522 16.871 104.763 15.9069 105.866C14.9814 107.008 13.8053 107.894 12.3785 108.524C10.9902 109.194 9.42848 109.529 7.69317 109.529C7.07618 109.529 6.45918 109.47 5.84219 109.351C5.22519 109.273 4.55035 109.115 3.81767 108.879V102.026Z" fill="#FBF0E3"/>
<path d="M34.6947 84.4209V65.0437H42.4458V82.7077C42.4458 85.0708 42.87 86.8628 43.7183 88.0837C44.5667 89.2652 45.82 89.856 47.4781 89.856C48.4808 89.856 49.4641 89.6591 50.4282 89.2652C51.4308 88.832 52.337 88.2018 53.1468 87.3748C53.9952 86.5477 54.7086 85.504 55.287 84.2437V65.0437H63.038V87.1385C63.038 87.9655 63.173 88.5563 63.4429 88.9108C63.7514 89.2652 64.2335 89.4818 64.889 89.5606V96C64.1178 96.1181 63.4622 96.1969 62.9223 96.2363C62.421 96.3151 61.9583 96.3545 61.5341 96.3545C60.1459 96.3545 59.0083 96.0394 58.1213 95.4092C57.273 94.7397 56.7717 93.8338 56.6174 92.6917L56.4439 90.2105C55.0942 92.2978 53.3589 93.8929 51.238 94.9957C49.117 96.0591 46.784 96.5908 44.2389 96.5908C41.1154 96.5908 38.7438 95.5668 37.1242 93.5188C35.5046 91.4314 34.6947 88.3988 34.6947 84.4209Z" fill="#FBF0E3"/>
<path d="M117.825 96H110.074V78.6314C110.074 76.1895 109.65 74.3975 108.802 73.2554C107.992 72.0738 106.854 71.4831 105.389 71.4831C103.885 71.4831 102.439 72.0935 101.051 73.3145C99.701 74.496 98.7369 76.0517 98.1585 77.9815V96H90.4074V78.6314C90.4074 76.1501 89.9833 74.3385 89.1349 73.1963C88.3251 72.0542 87.1875 71.4831 85.7221 71.4831C84.2182 71.4831 82.7721 72.0738 81.3839 73.2554C80.0342 74.4369 79.0701 75.9926 78.4917 77.9225V96H70.7407V65.0437H77.7397V70.7741C78.8966 68.7655 80.4391 67.2295 82.3672 66.1662C84.2953 65.0634 86.5126 64.512 89.0192 64.512C91.5257 64.512 93.4732 65.1422 94.8614 66.4025C96.2882 67.6628 97.1944 69.2185 97.58 71.0695C98.814 68.9428 100.376 67.328 102.265 66.2252C104.193 65.0831 106.353 64.512 108.744 64.512C110.633 64.512 112.157 64.8665 113.313 65.5754C114.509 66.2449 115.434 67.1705 116.09 68.352C116.745 69.4941 117.189 70.7939 117.42 72.2511C117.69 73.7083 117.825 75.1852 117.825 76.6818V96Z" fill="#FBF0E3"/>
<path d="M3.81767 54.0258C4.51179 54.1834 5.14806 54.3212 5.7265 54.4394C6.34349 54.5575 6.86409 54.6166 7.28827 54.6166C8.02095 54.6166 8.61867 54.4197 9.08142 54.0258C9.58273 53.6714 10.0648 53.0018 10.5275 52.0172C10.9902 51.072 11.4723 49.7329 11.9736 48L0 17.0437H8.04023L16.1962 39.9065L23.3687 17.0437H30.7727L18.0471 54.144C17.5844 55.5225 16.871 56.7631 15.9069 57.8658C14.9814 59.008 13.8053 59.8942 12.3785 60.5243C10.9902 61.1938 9.42848 61.5286 7.69317 61.5286C7.07618 61.5286 6.45918 61.4695 5.84219 61.3514C5.22519 61.2726 4.55035 61.1151 3.81767 60.8788V54.0258Z" fill="#FBF0E3"/>
<path d="M34.6947 36.4209V17.0437H42.4458V34.7077C42.4458 37.0708 42.87 38.8628 43.7183 40.0837C44.5667 41.2652 45.82 41.856 47.4781 41.856C48.4808 41.856 49.4641 41.6591 50.4282 41.2652C51.4308 40.832 52.337 40.2018 53.1468 39.3748C53.9952 38.5477 54.7086 37.504 55.287 36.2437V17.0437H63.038V39.1385C63.038 39.9655 63.173 40.5563 63.4429 40.9108C63.7514 41.2652 64.2335 41.4818 64.889 41.5606V48C64.1178 48.1181 63.4622 48.1969 62.9223 48.2363C62.421 48.3151 61.9583 48.3545 61.5341 48.3545C60.1459 48.3545 59.0083 48.0394 58.1213 47.4092C57.273 46.7397 56.7717 45.8338 56.6174 44.6917L56.4439 42.2105C55.0942 44.2978 53.3589 45.8929 51.238 46.9957C49.117 48.0591 46.784 48.5908 44.2389 48.5908C41.1154 48.5908 38.7438 47.5668 37.1242 45.5188C35.5046 43.4314 34.6947 40.3988 34.6947 36.4209Z" fill="#FBF0E3"/>
<path d="M117.825 48H110.074V30.6314C110.074 28.1895 109.65 26.3975 108.802 25.2554C107.992 24.0738 106.854 23.4831 105.389 23.4831C103.885 23.4831 102.439 24.0935 101.051 25.3145C99.701 26.496 98.7369 28.0517 98.1585 29.9815V48H90.4074V30.6314C90.4074 28.1502 89.9833 26.3385 89.1349 25.1963C88.3251 24.0542 87.1875 23.4831 85.7221 23.4831C84.2182 23.4831 82.7721 24.0738 81.3839 25.2554C80.0342 26.4369 79.0701 27.9926 78.4917 29.9225V48H70.7407V17.0437H77.7397V22.7742C78.8966 20.7655 80.4391 19.2295 82.3672 18.1662C84.2953 17.0634 86.5126 16.512 89.0192 16.512C91.5257 16.512 93.4732 17.1422 94.8614 18.4025C96.2882 19.6628 97.1944 21.2185 97.58 23.0695C98.814 20.9428 100.376 19.328 102.265 18.2252C104.193 17.0831 106.353 16.512 108.744 16.512C110.633 16.512 112.157 16.8665 113.313 17.5754C114.509 18.2449 115.434 19.1705 116.09 20.352C116.745 21.4942 117.189 22.7938 117.42 24.2511C117.69 25.7083 117.825 27.1852 117.825 28.6818V48Z" fill="#FBF0E3"/>
<path d="M0.697962 0H120V3L0.697962 7.38462V0Z" fill="#FBF0E3"/>
<path d="M0.697962 116.615L120 112.615V120H0.697962V116.615Z" fill="#FBF0E3"/>
</svg>
