<svg width="60" height="60" viewBox="0 0 60 60" fill="none" xmlns="http://www.w3.org/2000/svg">
<path d="M1.90883 51.0129C2.25589 51.0917 2.57403 51.1606 2.86325 51.2197C3.17175 51.2788 3.43204 51.3083 3.64414 51.3083C4.01048 51.3083 4.30933 51.2098 4.54071 51.0129C4.79136 50.8357 5.03238 50.5009 5.26375 50.0086C5.49512 49.536 5.73614 48.8665 5.98679 48L0 32.5218H4.02012L8.09808 43.9532L11.6844 32.5218H15.3863L9.02357 51.072C8.7922 51.7612 8.4355 52.3815 7.95347 52.9329C7.49072 53.504 6.90265 53.9471 6.18925 54.2622C5.49512 54.5969 4.71424 54.7643 3.84659 54.7643C3.53809 54.7643 3.22959 54.7348 2.92109 54.6757C2.61259 54.6363 2.27517 54.5575 1.90883 54.4394V51.0129Z" fill="#D95C39"/>
<path d="M17.3474 42.2105V32.5218H21.2229V41.3538C21.2229 42.5354 21.435 43.4314 21.8592 44.0418C22.2833 44.6326 22.91 44.928 23.7391 44.928C24.2404 44.928 24.7321 44.8295 25.2141 44.6326C25.7154 44.416 26.1685 44.1009 26.5734 43.6874C26.9976 43.2738 27.3543 42.752 27.6435 42.1218V32.5218H31.519V43.5692C31.519 43.9828 31.5865 44.2782 31.7215 44.4554C31.8757 44.6326 32.1167 44.7409 32.4445 44.7803V48C32.0589 48.0591 31.7311 48.0985 31.4612 48.1181C31.2105 48.1575 30.9791 48.1772 30.767 48.1772C30.0729 48.1772 29.5041 48.0197 29.0607 47.7046C28.6365 47.3698 28.3858 46.9169 28.3087 46.3458L28.2219 45.1052C27.5471 46.1489 26.6794 46.9465 25.619 47.4978C24.5585 48.0295 23.392 48.2954 22.1195 48.2954C20.5577 48.2954 19.3719 47.7834 18.5621 46.7594C17.7523 45.7157 17.3474 44.1994 17.3474 42.2105Z" fill="#D95C39"/>
<path d="M58.9126 48H55.0371V39.3157C55.0371 38.0948 54.825 37.1988 54.4008 36.6277C53.9959 36.0369 53.4271 35.7415 52.6944 35.7415C51.9425 35.7415 51.2194 36.0468 50.5253 36.6572C49.8505 37.248 49.3685 38.0258 49.0792 38.9908V48H45.2037V39.3157C45.2037 38.0751 44.9916 37.1692 44.5674 36.5982C44.1625 36.0271 43.5937 35.7415 42.8611 35.7415C42.1091 35.7415 41.3861 36.0369 40.6919 36.6277C40.0171 37.2185 39.5351 37.9963 39.2459 38.9612V48H35.3703V32.5218H38.8699V35.3871C39.4483 34.3828 40.2196 33.6148 41.1836 33.0831C42.1477 32.5317 43.2563 32.256 44.5096 32.256C45.7629 32.256 46.7366 32.5711 47.4307 33.2012C48.1441 33.8314 48.5972 34.6092 48.79 35.5348C49.407 34.4714 50.1879 33.664 51.1327 33.1126C52.0967 32.5415 53.1765 32.256 54.3719 32.256C55.3167 32.256 56.0783 32.4332 56.6567 32.7877C57.2544 33.1225 57.7172 33.5852 58.045 34.176C58.3727 34.7471 58.5945 35.3969 58.7102 36.1255C58.8451 36.8542 58.9126 37.5926 58.9126 38.3409V48Z" fill="#D95C39"/>
<path d="M1.90883 27.0129C2.25589 27.0917 2.57403 27.1606 2.86325 27.2197C3.17175 27.2788 3.43204 27.3083 3.64414 27.3083C4.01048 27.3083 4.30933 27.2098 4.54071 27.0129C4.79136 26.8357 5.03238 26.5009 5.26375 26.0086C5.49512 25.536 5.73614 24.8665 5.98679 24L0 8.52184H4.02012L8.09808 19.9532L11.6844 8.52184H15.3863L9.02357 27.072C8.7922 27.7612 8.4355 28.3815 7.95347 28.9329C7.49072 29.504 6.90265 29.9471 6.18925 30.2622C5.49512 30.5969 4.71424 30.7643 3.84659 30.7643C3.53809 30.7643 3.22959 30.7348 2.92109 30.6757C2.61259 30.6363 2.27517 30.5575 1.90883 30.4394V27.0129Z" fill="#D95C39"/>
<path d="M17.3474 18.2105V8.52184H21.2229V17.3538C21.2229 18.5354 21.435 19.4314 21.8592 20.0418C22.2833 20.6326 22.91 20.928 23.7391 20.928C24.2404 20.928 24.7321 20.8295 25.2141 20.6326C25.7154 20.416 26.1685 20.1009 26.5734 19.6874C26.9976 19.2738 27.3543 18.752 27.6435 18.1218V8.52184H31.519V19.5692C31.519 19.9828 31.5865 20.2782 31.7215 20.4554C31.8757 20.6326 32.1167 20.7409 32.4445 20.7803V24C32.0589 24.0591 31.7311 24.0985 31.4612 24.1182C31.2105 24.1575 30.9791 24.1772 30.767 24.1772C30.0729 24.1772 29.5041 24.0197 29.0607 23.7046C28.6365 23.3698 28.3858 22.9169 28.3087 22.3458L28.2219 21.1052C27.5471 22.1489 26.6794 22.9465 25.619 23.4978C24.5585 24.0295 23.392 24.2954 22.1195 24.2954C20.5577 24.2954 19.3719 23.7834 18.5621 22.7594C17.7523 21.7157 17.3474 20.1994 17.3474 18.2105Z" fill="#D95C39"/>
<path d="M58.9126 24H55.0371V15.3157C55.0371 14.0948 54.825 13.1988 54.4008 12.6277C53.9959 12.0369 53.4271 11.7415 52.6944 11.7415C51.9425 11.7415 51.2194 12.0468 50.5253 12.6572C49.8505 13.248 49.3685 14.0258 49.0792 14.9908V24H45.2037V15.3157C45.2037 14.0751 44.9916 13.1692 44.5674 12.5982C44.1625 12.0271 43.5937 11.7415 42.8611 11.7415C42.1091 11.7415 41.3861 12.0369 40.6919 12.6277C40.0171 13.2185 39.5351 13.9963 39.2459 14.9612V24H35.3703V8.52184H38.8699V11.3871C39.4483 10.3828 40.2196 9.61477 41.1836 9.08308C42.1477 8.53169 43.2563 8.256 44.5096 8.256C45.7629 8.256 46.7366 8.57108 47.4307 9.20123C48.1441 9.83138 48.5972 10.6092 48.79 11.5348C49.407 10.4714 50.1879 9.664 51.1327 9.11261C52.0967 8.54154 53.1765 8.256 54.3719 8.256C55.3167 8.256 56.0783 8.43323 56.6567 8.78769C57.2544 9.12246 57.7172 9.58523 58.045 10.176C58.3727 10.7471 58.5945 11.3969 58.7102 12.1255C58.8451 12.8542 58.9126 13.5926 58.9126 14.3409V24Z" fill="#D95C39"/>
<path d="M0.348981 0H60V1.5L0.348981 3.69231V0Z" fill="#D95C39"/>
<path d="M0.348981 58.3077L60 56.3077V60H0.348981V58.3077Z" fill="#D95C39"/>
</svg>
