<svg width="45" height="40" viewBox="0 0 45 40" fill="none" xmlns="http://www.w3.org/2000/svg">
<path d="M13.167 1.57081C3.886 4.80037 -0.624386 10.5612 0.0695196 18.3296C0.589949 23.8286 3.79927 27.931 9.87094 30.8987C21.8408 36.8341 37.1935 33.4299 43.005 23.654C51.4186 9.77563 31.6422 -4.88829 13.167 1.57081ZM33.2903 4.6258C40.8365 8.20449 43.9591 13.4416 42.3111 19.4643C40.3161 26.7963 32.5096 31.3351 21.9276 31.3351C15.4222 31.3351 8.04944 28.3674 5.10034 24.6141C-2.96632 14.2272 6.22794 2.53095 22.448 2.53095C27.4788 2.53095 29.9075 3.05466 33.2903 4.6258Z" fill="#ECD1D0"/>
<path d="M15.0752 5.14943C13.5139 5.84771 13.6007 5.93499 15.6824 5.93499C16.9835 6.02228 18.2845 5.58585 18.5447 5.14943C19.1519 4.102 17.5039 4.102 15.0752 5.14943Z" fill="#ECD1D0"/>
<path d="M23.4885 5.14941C17.1566 6.63325 19.4986 7.41882 27.305 6.28411C30.4276 5.84769 31.0348 5.58583 29.8204 5.06212C27.7387 4.27655 27.1315 4.27655 23.4885 5.14941Z" fill="#ECD1D0"/>
<path d="M11.5193 8.20436C12.4734 8.90264 14.2949 9.51364 15.596 9.51364C16.8104 9.51364 20.1064 10.7356 22.7953 12.1322C26.0914 13.9652 27.6526 14.4016 27.6526 13.616C27.6526 12.2195 20.9738 8.98993 15.5093 7.76794C10.305 6.63323 9.52434 6.72051 11.5193 8.20436Z" fill="#ECD1D0"/>
<path d="M31.2954 8.29165C28.5198 10.2119 28.78 14.227 31.9026 17.4566C35.0252 20.5116 37.5406 20.6862 39.3621 17.893C41.1836 15.0999 40.3162 11.8703 37.0202 9.07722C33.9843 6.54595 33.8108 6.45866 31.2954 8.29165ZM36.413 9.51365C39.4488 11.1721 37.9743 16.4965 34.5048 16.4965C32.8567 16.4965 30.2546 14.3143 30.2546 12.9178C30.2546 12.0449 33.3772 8.64079 34.2445 8.64079C34.5048 8.64079 35.4589 9.07722 36.413 9.51365Z" fill="#ECD1D0"/>
<path d="M33.03 11.5213C31.7289 13.0051 33.1167 15.1872 35.025 14.4017C36.5863 13.878 36.4995 11.1721 34.9382 10.6484C34.4178 10.4738 33.5504 10.823 33.03 11.5213Z" fill="#ECD1D0"/>
<path d="M25.4841 8.55355C25.2238 8.98997 25.3973 9.60097 25.9177 9.95011C26.9586 10.5611 28.5199 9.77554 28.5199 8.55355C28.5199 7.50613 26.178 7.50613 25.4841 8.55355Z" fill="#ECD1D0"/>
<path d="M7.26869 9.42639C6.835 10.2992 10.2178 11.7831 14.6414 12.6559C16.2895 12.9178 20.106 14.5762 23.0551 16.2346C26.0909 17.8931 29.04 19.1151 29.5604 18.9405C31.1217 18.4168 18.111 11.2594 15.6823 11.2594C14.6414 11.2594 12.3862 10.7357 10.7382 10.0374C9.09019 9.33911 7.5289 9.07725 7.26869 9.42639Z" fill="#ECD1D0"/>
<path d="M5.10034 12.2196C5.10034 13.267 10.3046 15.6237 12.6466 15.6237C13.514 15.6237 16.2896 16.5838 18.7183 17.8058C21.2337 18.9405 23.4889 19.5515 23.7491 19.2024C24.2695 18.3295 14.7283 13.878 12.3864 13.878C11.4322 13.878 9.61073 13.267 8.22292 12.5687C5.27382 10.9976 5.10034 10.9976 5.10034 12.2196Z" fill="#ECD1D0"/>
<path d="M3.79934 16.4964C3.45239 17.0201 4.23304 17.3693 5.44737 17.3693C6.66171 17.3693 7.70257 16.9328 7.70257 16.4964C7.70257 15.9727 6.92192 15.6236 6.05454 15.6236C5.10042 15.6236 4.05956 15.9727 3.79934 16.4964Z" fill="#ECD1D0"/>
<path d="M8.2228 18.5914C6.74825 19.2897 6.14108 19.988 6.66151 20.3372C7.18194 20.6863 9.09018 20.1626 10.9117 19.2024C14.6414 17.1949 12.473 16.7585 8.2228 18.5914Z" fill="#ECD1D0"/>
<path d="M12.386 20.4244C10.2175 22.0828 11.8656 22.0828 15.5953 20.4244C18.3709 19.2897 18.3709 19.2024 16.2892 19.1151C15.0749 19.1151 13.3401 19.7261 12.386 20.4244Z" fill="#ECD1D0"/>
<path d="M29.2137 20.9481C27.3054 21.9955 27.2187 25.4869 28.9535 26.9707C29.9076 27.7563 31.0352 27.669 34.1578 26.5343C38.7549 24.7013 39.5355 22.1701 35.7191 21.5591C34.3312 21.2972 32.6832 20.8608 31.9893 20.5989C31.2954 20.2498 29.9943 20.4244 29.2137 20.9481Z" fill="#ECD1D0"/>
<path d="M5.9678 22.8683C7.52909 24.5268 12.0395 25.7488 12.0395 24.5268C12.0395 24.0903 11.0854 23.392 9.95776 23.1302C8.83016 22.8683 7.18213 22.3446 6.22801 22.0828C4.8402 21.5591 4.8402 21.6463 5.9678 22.8683Z" fill="#ECD1D0"/>
<path d="M15.162 22.8684C14.2078 23.5667 13.6874 24.876 13.9476 26.098C14.3813 29.5021 16.1161 29.0657 16.5498 25.487C17.0702 21.4719 17.0702 21.4719 15.162 22.8684Z" fill="#ECD1D0"/>
<path d="M18.7183 23.2176C17.7642 24.1777 18.0244 27.4073 19.152 28.542C20.8001 30.2004 21.147 29.8512 21.147 26.098C21.147 22.8684 20.1062 21.7337 18.7183 23.2176Z" fill="#ECD1D0"/>
<path d="M23.0553 23.2175C21.0603 25.2251 23.6625 30.2876 26.2646 29.3275C27.2187 28.9783 27.2187 28.28 26.4381 25.7488C25.5707 22.7811 24.3564 21.9082 23.0553 23.2175Z" fill="#ECD1D0"/>
<path d="M33.7238 33.2553C26.6113 36.5721 19.6722 36.3976 8.56972 32.557C7.87581 32.2952 8.65646 33.4299 10.478 35.1756C17.3303 41.722 27.7389 41.6347 34.9382 34.7392C39.0149 30.8986 39.0149 30.8986 33.7238 33.2553Z" fill="#ECD1D0"/>
</svg>
