<svg width="503" height="55" viewBox="0 0 503 55" fill="none" xmlns="http://www.w3.org/2000/svg">
<path d="M20.5312 24.625V12.3125H12.25V24.625H0.78125V32.5625H12.25V45.4375H20.5312V32.5625H31.9688V24.625H20.5312ZM52.1 27.728C52.1 23.4187 53.06 19.024 54.98 14.544C56.9 10.0213 59.268 5.37067 62.084 0.591999L71.364 4.304C70.852 5.11466 70.1693 6.352 69.316 8.016C68.4627 9.68 67.5667 11.6213 66.628 13.84C65.732 16.0587 64.964 18.384 64.324 20.816C63.7267 23.248 63.428 25.616 63.428 27.92C63.428 31.4187 64.1533 34.96 65.604 38.544C67.0973 42.0853 68.9107 45.8827 71.044 49.936L62.212 54.224C60.4627 51.5787 58.82 48.8053 57.284 45.904C55.748 42.96 54.4893 39.952 53.508 36.88C52.5693 33.808 52.1 30.7573 52.1 27.728ZM90.423 49.936V41.232H73.975V30.352L94.263 4.496H102.583V30.352H108.215V41.232H102.583V49.936H90.423ZM85.943 30.352H91.831V22.672L85.943 30.352ZM147.171 34.64C147.171 31.7813 146.467 29.2427 145.059 27.024C143.693 24.7627 141.795 22.992 139.363 21.712C136.973 20.3893 134.243 19.728 131.171 19.728C130.189 19.728 129.272 19.8133 128.419 19.984C127.565 20.112 126.797 20.3467 126.115 20.688C125.432 20.9867 124.813 21.392 124.259 21.904C124.344 20.368 124.664 19.0667 125.219 18C125.773 16.9333 126.563 16.1227 127.587 15.568C128.611 14.9707 129.805 14.672 131.171 14.672C132.621 14.672 134.029 14.9707 135.395 15.568C136.76 16.1653 137.997 17.0187 139.107 18.128L145.826 10.32C143.821 8.31466 141.603 6.8 139.171 5.776C136.739 4.70933 134.136 4.176 131.363 4.176C127.565 4.176 124.301 5.136 121.571 7.056C118.84 8.976 116.728 11.7493 115.235 15.376C113.784 18.96 113.059 23.248 113.059 28.24C113.059 32.976 113.72 37.008 115.043 40.336C116.408 43.664 118.349 46.224 120.867 48.016C123.427 49.7653 126.52 50.64 130.147 50.64C133.389 50.64 136.291 49.936 138.851 48.528C141.411 47.0773 143.437 45.1573 144.931 42.768C146.424 40.336 147.171 37.6267 147.171 34.64ZM130.147 40.464C129.208 40.464 128.312 40.208 127.458 39.696C126.648 39.1413 125.987 38.416 125.475 37.52C124.963 36.624 124.707 35.664 124.707 34.64C124.707 33.616 124.941 32.6987 125.411 31.888C125.923 31.0773 126.584 30.4373 127.395 29.968C128.248 29.4987 129.165 29.264 130.147 29.264C131.171 29.264 132.088 29.4987 132.899 29.968C133.709 30.4373 134.349 31.0773 134.819 31.888C135.331 32.6987 135.587 33.616 135.587 34.64C135.587 35.664 135.331 36.624 134.819 37.52C134.307 38.416 133.645 39.1413 132.835 39.696C132.024 40.208 131.128 40.464 130.147 40.464ZM169.787 27.728C169.787 30.7573 169.296 33.808 168.315 36.88C167.376 39.952 166.139 42.96 164.603 45.904C163.067 48.8053 161.424 51.5787 159.675 54.224L150.843 49.936C152.976 45.8827 154.768 42.0853 156.219 38.544C157.712 34.96 158.459 31.4187 158.459 27.92C158.459 25.616 158.139 23.248 157.499 20.816C156.901 18.384 156.133 16.0587 155.195 13.84C154.299 11.6213 153.424 9.68 152.571 8.016C151.717 6.352 151.035 5.11466 150.523 4.304L159.803 0.591999C162.619 5.37067 164.987 10.0213 166.907 14.544C168.827 19.024 169.787 23.4187 169.787 27.728ZM219.542 39.12V50H189.91V39.12H198.998V15.952C198.657 16.464 198.081 17.04 197.27 17.68C196.459 18.2773 195.521 18.8747 194.454 19.472C193.43 20.0267 192.385 20.496 191.318 20.88C190.251 21.264 189.291 21.456 188.438 21.456V10.32C189.59 10.32 190.763 10.0213 191.958 9.424C193.195 8.82667 194.326 8.144 195.35 7.376C196.417 6.608 197.27 5.904 197.91 5.264C198.593 4.624 198.955 4.28266 198.998 4.24H211.414V39.12H219.542ZM223.242 50C223.242 47.312 223.327 44.9867 223.498 43.024C223.711 41.0613 224.095 39.3333 224.65 37.84C225.247 36.304 226.122 34.9387 227.274 33.744C228.468 32.5067 230.026 31.2907 231.946 30.096C233.226 29.328 234.57 28.56 235.978 27.792C237.428 26.9813 238.772 26.1493 240.01 25.296C241.29 24.4 242.314 23.4187 243.082 22.352C243.892 21.2853 244.298 20.0693 244.298 18.704C244.298 17.7227 244.106 16.9547 243.722 16.4C243.338 15.8453 242.826 15.44 242.186 15.184C241.546 14.928 240.863 14.8 240.138 14.8C239.028 14.8 237.898 15.0347 236.746 15.504C235.636 15.9307 234.548 16.4853 233.482 17.168C232.458 17.8507 231.54 18.5973 230.73 19.408L223.242 11.28C224.095 10.2987 225.14 9.38133 226.378 8.528C227.658 7.67466 229.087 6.90666 230.666 6.224C232.287 5.54133 234.036 5.008 235.914 4.624C237.791 4.24 239.775 4.048 241.866 4.048C245.322 4.048 248.266 4.60266 250.698 5.712C253.13 6.82133 254.986 8.42133 256.266 10.512C257.546 12.56 258.186 15.0133 258.186 17.872C258.186 19.4933 257.972 20.9867 257.546 22.352C257.162 23.7173 256.564 24.9973 255.754 26.192C254.986 27.344 254.047 28.4107 252.938 29.392C251.828 30.3733 250.57 31.312 249.162 32.208C247.54 33.232 246.175 34.1067 245.066 34.832C243.999 35.5147 243.082 36.112 242.314 36.624C241.546 37.0933 240.884 37.5413 240.33 37.968C239.775 38.352 239.22 38.736 238.666 39.12H258.25V50H223.242ZM278.017 50.32C275.841 50.32 273.814 50.1493 271.937 49.808C270.102 49.424 268.395 48.848 266.817 48.08C265.281 47.312 263.83 46.352 262.465 45.2L268.673 36.368C269.483 37.008 270.337 37.5413 271.233 37.968C272.129 38.352 273.067 38.6507 274.049 38.864C275.073 39.0773 276.182 39.184 277.377 39.184C278.827 39.184 280.001 39.0347 280.897 38.736C281.835 38.4373 282.518 37.9893 282.945 37.392C283.414 36.752 283.649 35.9627 283.649 35.024C283.649 33.9573 283.371 33.104 282.817 32.464C282.262 31.7813 281.366 31.2907 280.128 30.992C278.934 30.6507 277.377 30.48 275.457 30.48H273.473V22.032H275.713C277.761 22.032 279.403 21.6267 280.641 20.816C281.878 20.0053 282.497 18.9387 282.497 17.616C282.497 16.9333 282.326 16.3573 281.985 15.888C281.686 15.376 281.217 14.992 280.577 14.736C279.979 14.48 279.233 14.352 278.337 14.352C276.886 14.352 275.499 14.736 274.177 15.504C272.854 16.2293 271.702 17.3387 270.72 18.832L263.041 9.808C264.065 8.656 265.43 7.65333 267.137 6.8C268.886 5.94666 270.849 5.28533 273.025 4.816C275.201 4.304 277.441 4.048 279.745 4.048C282.902 4.048 285.654 4.51733 288.001 5.456C290.39 6.39466 292.246 7.71733 293.569 9.424C294.891 11.088 295.553 13.0507 295.553 15.312C295.553 17.0187 295.19 18.6187 294.465 20.112C293.739 21.5627 292.758 22.8 291.521 23.824C290.283 24.8053 288.875 25.4453 287.297 25.744C289.046 26.0427 290.582 26.7253 291.905 27.792C293.27 28.8587 294.337 30.224 295.104 31.888C295.873 33.5093 296.257 35.3013 296.257 37.264C296.257 39.952 295.51 42.2773 294.017 44.24C292.566 46.16 290.475 47.6533 287.745 48.72C285.014 49.7867 281.771 50.32 278.017 50.32ZM316.861 49.936V41.232H300.413V30.352L320.701 4.496H329.021V30.352H334.653V41.232H329.021V49.936H316.861ZM312.381 30.352H318.269V22.672L312.381 30.352ZM368.719 50.576C365.391 50.576 362.383 49.9573 359.695 48.72C357.05 47.44 355.002 45.6693 353.551 43.408L360.207 35.728C361.444 37.0507 362.81 38.096 364.303 38.864C365.839 39.5893 367.332 39.952 368.783 39.952C369.85 39.952 370.746 39.76 371.471 39.376C372.239 38.992 372.815 38.4373 373.199 37.712C373.626 36.9867 373.839 36.1547 373.839 35.216C373.839 34.2773 373.647 33.4667 373.263 32.784C372.922 32.0587 372.41 31.504 371.727 31.12C371.087 30.736 370.319 30.544 369.423 30.544C368.527 30.544 367.695 30.7573 366.927 31.184C366.202 31.568 365.647 32.1013 365.263 32.784H354.831L360.207 4.496H382.991V15.568H368.975L368.271 20.496C368.271 20.496 368.506 20.4533 368.975 20.368C369.444 20.24 370.191 20.176 371.215 20.176C374.159 20.176 376.762 20.816 379.023 22.096C381.284 23.3333 383.055 25.0613 384.335 27.28C385.658 29.4987 386.319 32.0587 386.319 34.96C386.319 38.032 385.572 40.7413 384.079 43.088C382.586 45.4347 380.516 47.2693 377.871 48.592C375.268 49.9147 372.218 50.576 368.719 50.576ZM425.233 34.64C425.233 31.7813 424.529 29.2427 423.121 27.024C421.756 24.7627 419.857 22.992 417.425 21.712C415.036 20.3893 412.305 19.728 409.233 19.728C408.252 19.728 407.334 19.8133 406.481 19.984C405.628 20.112 404.86 20.3467 404.177 20.688C403.494 20.9867 402.876 21.392 402.321 21.904C402.406 20.368 402.726 19.0667 403.281 18C403.836 16.9333 404.625 16.1227 405.649 15.568C406.673 14.9707 407.868 14.672 409.233 14.672C410.684 14.672 412.092 14.9707 413.457 15.568C414.822 16.1653 416.06 17.0187 417.169 18.128L423.889 10.32C421.884 8.31466 419.665 6.8 417.233 5.776C414.801 4.70933 412.198 4.176 409.425 4.176C405.628 4.176 402.364 5.136 399.633 7.056C396.902 8.976 394.79 11.7493 393.297 15.376C391.846 18.96 391.121 23.248 391.121 28.24C391.121 32.976 391.782 37.008 393.105 40.336C394.47 43.664 396.412 46.224 398.929 48.016C401.489 49.7653 404.582 50.64 408.209 50.64C411.452 50.64 414.353 49.936 416.913 48.528C419.473 47.0773 421.5 45.1573 422.993 42.768C424.486 40.336 425.233 37.6267 425.233 34.64ZM408.209 40.464C407.27 40.464 406.374 40.208 405.521 39.696C404.71 39.1413 404.049 38.416 403.537 37.52C403.025 36.624 402.769 35.664 402.769 34.64C402.769 33.616 403.004 32.6987 403.473 31.888C403.985 31.0773 404.646 30.4373 405.457 29.968C406.31 29.4987 407.228 29.264 408.209 29.264C409.233 29.264 410.15 29.4987 410.961 29.968C411.772 30.4373 412.412 31.0773 412.881 31.888C413.393 32.6987 413.649 33.616 413.649 34.64C413.649 35.664 413.393 36.624 412.881 37.52C412.369 38.416 411.708 39.1413 410.897 39.696C410.086 40.208 409.19 40.464 408.209 40.464ZM447.273 15.568H429.929V4.496H466.409L444.201 49.936H430.441L447.273 15.568ZM502.547 35.856C502.547 38.8 501.779 41.3813 500.243 43.6C498.707 45.8187 496.638 47.5467 494.035 48.784C491.432 50.0213 488.552 50.64 485.395 50.64C482.408 50.64 479.592 50.0213 476.947 48.784C474.344 47.5467 472.232 45.7973 470.611 43.536C469.032 41.232 468.243 38.544 468.243 35.472C468.243 33.936 468.52 32.5493 469.075 31.312C469.672 30.0747 470.398 28.9867 471.251 28.048C472.104 27.1093 472.936 26.3413 473.747 25.744C472.936 25.232 472.211 24.5707 471.571 23.76C470.931 22.9493 470.419 22.0533 470.035 21.072C469.694 20.048 469.523 19.0453 469.523 18.064C469.523 15.888 470.014 13.968 470.995 12.304C471.976 10.5973 473.256 9.168 474.835 8.016C476.414 6.864 478.12 6.01066 479.955 5.456C481.832 4.85866 483.646 4.56 485.395 4.56C487.144 4.56 488.958 4.85866 490.835 5.456C492.712 6.01066 494.44 6.864 496.019 8.016C497.598 9.12533 498.878 10.512 499.859 12.176C500.84 13.84 501.331 15.76 501.331 17.936C501.331 18.9173 501.139 19.92 500.755 20.944C500.371 21.968 499.859 22.9067 499.219 23.76C498.579 24.6133 497.854 25.2747 497.043 25.744C497.896 26.384 498.75 27.1947 499.603 28.176C500.456 29.1147 501.16 30.224 501.715 31.504C502.27 32.784 502.547 34.2347 502.547 35.856ZM490.195 35.152C490.195 34.4267 490.067 33.808 489.811 33.296C489.598 32.7413 489.256 32.272 488.787 31.888C488.36 31.504 487.848 31.2267 487.251 31.056C486.696 30.8427 486.078 30.736 485.395 30.736C484.456 30.736 483.624 30.928 482.899 31.312C482.174 31.6533 481.598 32.1653 481.171 32.848C480.787 33.488 480.595 34.256 480.595 35.152C480.595 35.792 480.723 36.3893 480.979 36.944C481.235 37.456 481.576 37.9253 482.003 38.352C482.43 38.736 482.92 39.0347 483.475 39.248C484.072 39.4613 484.712 39.568 485.395 39.568C486.334 39.568 487.166 39.376 487.891 38.992C488.616 38.5653 489.171 38.032 489.555 37.392C489.982 36.7093 490.195 35.9627 490.195 35.152ZM481.875 18.32C481.875 19.088 482.046 19.728 482.387 20.24C482.728 20.7093 483.176 21.072 483.731 21.328C484.286 21.584 484.84 21.712 485.395 21.712C485.992 21.712 486.547 21.584 487.059 21.328C487.614 21.072 488.062 20.7093 488.403 20.24C488.787 19.728 488.979 19.088 488.979 18.32C488.979 17.7653 488.83 17.2533 488.531 16.784C488.232 16.3147 487.806 15.952 487.251 15.696C486.739 15.3973 486.12 15.248 485.395 15.248C484.712 15.248 484.094 15.3973 483.539 15.696C483.027 15.952 482.622 16.3147 482.323 16.784C482.024 17.2533 481.875 17.7653 481.875 18.32Z" fill="#FBF0E3"/>
</svg>
